<svg width="10" height="10" viewBox="0 0 10 10" fill="none" xmlns="http://www.w3.org/2000/svg">
<path fill-rule="evenodd" clip-rule="evenodd" d="M1.18693 0.864276C0.991665 0.687448 0.675083 0.687448 0.479821 0.864276C0.284558 1.0411 0.284559 1.3278 0.479821 1.50462L4.21066 4.88323L0.479824 8.26184C0.284562 8.43866 0.284561 8.72536 0.479824 8.90219C0.675086 9.07901 0.991669 9.07901 1.18693 8.90219L4.91776 5.52358L8.64852 8.90211C8.84378 9.07894 9.16036 9.07894 9.35562 8.90211C9.55089 8.72529 9.55089 8.43859 9.35562 8.26176L5.62487 4.88323L9.35563 1.5047C9.55089 1.32787 9.55089 1.04117 9.35563 0.864346C9.16037 0.687519 8.84378 0.687519 8.64852 0.864347L4.91776 4.24288L1.18693 0.864276Z" fill="white"/>
</svg>
